<svg width="2692" height="2692" viewBox="0 0 2692 2692" version="1.1" xmlns="http://www.w3.org/2000/svg" xmlns:xlink="http://www.w3.org/1999/xlink">
<title>Email_icon</title>
<desc>Created using Figma</desc>
<g id="Canvas" transform="matrix(4 0 0 4 -53040 -8640)">
<g id="Email_icon">
<g id="Ellipse 2.2">
<mask id="mask0_outline_ins">
<use xlink:href="#path0_fill" fill="white" transform="translate(13260 2160)"/>
</mask>
<g mask="url(#mask0_outline_ins)">
<use xlink:href="#path1_stroke_2x" transform="translate(13260 2160)"/>
</g>
</g>
<g id="Rectangle 3.1">
<mask id="mask1_outline_ins">
<use xlink:href="#path2_fill" fill="white" transform="translate(13406 2363)"/>
</mask>
<g mask="url(#mask1_outline_ins)">
<use xlink:href="#path3_stroke_2x" transform="translate(13406 2363)"/>
</g>
</g>
</g>
</g>
<defs>
<path id="path0_fill" d="M 673 336.5C 673 522.344 522.344 673 336.5 673C 150.656 673 0 522.344 0 336.5C 0 150.656 150.656 0 336.5 0C 522.344 0 673 150.656 673 336.5Z"/>
<path id="path1_stroke_2x" d="M 643 336.5C 643 505.775 505.775 643 336.5 643L 336.5 703C 538.912 703 703 538.912 703 336.5L 643 336.5ZM 336.5 643C 167.225 643 30 505.775 30 336.5L -30 336.5C -30 538.912 134.088 703 336.5 703L 336.5 643ZM 30 336.5C 30 167.225 167.225 30 336.5 30L 336.5 -30C 134.088 -30 -30 134.088 -30 336.5L 30 336.5ZM 336.5 30C 505.775 30 643 167.225 643 336.5L 703 336.5C 703 134.088 538.912 -30 336.5 -30L 336.5 30Z"/>
<path id="path2_fill" d="M 0 0L 382 0L 382 267L 0 267L 0 0Z"/>
<path id="path3_stroke_2x" d="M 9.90676 -11.263C 3.68635 -16.7344 -5.79169 -16.1272 -11.263 -9.90676C -16.7344 -3.68635 -16.1272 5.79169 -9.90676 11.263L 9.90676 -11.263ZM 391.907 11.263C 398.127 5.79169 398.734 -3.68635 393.263 -9.90676C 387.792 -16.1272 378.314 -16.7344 372.093 -11.263L 391.907 11.263ZM 184.395 162.191L 194.302 150.928L 184.395 162.191ZM 197.605 162.191L 187.698 150.928L 197.605 162.191ZM -9.90676 11.263L 174.489 173.454L 194.302 150.928L 9.90676 -11.263L -9.90676 11.263ZM 207.511 173.454L 391.907 11.263L 372.093 -11.263L 187.698 150.928L 207.511 173.454ZM 174.489 173.454C 183.93 181.758 198.07 181.758 207.511 173.454L 187.698 150.928C 189.586 149.267 192.414 149.267 194.302 150.928L 174.489 173.454ZM 0 0L 0 -30L -30 -30L -30 0L 0 0ZM 382 0L 412 0L 412 -30L 382 -30L 382 0ZM 382 267L 382 297L 412 297L 412 267L 382 267ZM 0 267L -30 267L -30 297L 0 297L 0 267ZM 0 30L 382 30L 382 -30L 0 -30L 0 30ZM 352 0L 352 267L 412 267L 412 0L 352 0ZM 382 237L 0 237L 0 297L 382 297L 382 237ZM 30 267L 30 0L -30 0L -30 267L 30 267Z"/>
</defs>
</svg>
