<svg width="2692" height="2692" viewBox="0 0 2692 2692" version="1.1" xmlns="http://www.w3.org/2000/svg" xmlns:xlink="http://www.w3.org/1999/xlink">
<title>Facebook_icon</title>
<desc>Created using Figma</desc>
<g id="Canvas" transform="matrix(4 0 0 4 -50152 -8640)">
<g id="Facebook_icon">
<g id="facebook">
<g id="Vector">
<use xlink:href="#path0_fill" transform="translate(12787.5 2328.66)"/>
</g>
</g>
<g id="Ellipse 2.1">
<mask id="mask0_outline_ins">
<use xlink:href="#path1_fill" fill="white" transform="translate(12538 2160)"/>
</mask>
<g mask="url(#mask0_outline_ins)">
<use xlink:href="#path2_stroke_2x" transform="translate(12538 2160)"/>
</g>
</g>
</g>
</g>
<defs>
<path id="path0_fill" d="M 47.0871 192.044L 46.8361 338.122L 110.546 338.122L 110.797 192.046L 161.25 192.046C 165.787 192.046 169.608 188.651 170.142 184.145L 175.723 137.058C 176.355 131.732 172.194 127.049 166.831 127.049L 110.546 127.049L 110.546 87.66C 110.546 69.797 115.506 57.625 141.121 57.625L 164.84 57.614C 169.783 57.611 173.79 53.603 173.79 48.659L 173.79 8.955C 173.79 4.009 169.78 0 164.835 0L 126.185 0C 79.084 0 46.8371 28.75 46.8371 81.55L 46.8371 127.048L 8.95507 127.048C 3.99607 127.048 -0.0189328 131.078 6.71574e-05 136.037L 0.182059 183.124C 0.201059 188.056 4.20407 192.044 9.13607 192.044L 47.0871 192.044Z"/>
<path id="path1_fill" d="M 673 336.5C 673 522.344 522.344 673 336.5 673C 150.656 673 0 522.344 0 336.5C 0 150.656 150.656 0 336.5 0C 522.344 0 673 150.656 673 336.5Z"/>
<path id="path2_stroke_2x" d="M 643 336.5C 643 505.775 505.775 643 336.5 643L 336.5 703C 538.912 703 703 538.912 703 336.5L 643 336.5ZM 336.5 643C 167.225 643 30 505.775 30 336.5L -30 336.5C -30 538.912 134.088 703 336.5 703L 336.5 643ZM 30 336.5C 30 167.225 167.225 30 336.5 30L 336.5 -30C 134.088 -30 -30 134.088 -30 336.5L 30 336.5ZM 336.5 30C 505.775 30 643 167.225 643 336.5L 703 336.5C 703 134.088 538.912 -30 336.5 -30L 336.5 30Z"/>
</defs>
</svg>
