<svg width="2692" height="2692" viewBox="0 0 2692 2692" version="1.1" xmlns="http://www.w3.org/2000/svg" xmlns:xlink="http://www.w3.org/1999/xlink">
<title>Twitter_icon</title>
<desc>Created using Figma</desc>
<g id="Canvas" transform="matrix(4 0 0 4 -47264 -8640)">
<g id="Twitter_icon">
<g id="twitter">
<g id="Vector">
<use xlink:href="#path0_fill" transform="translate(11966 2351)"/>
</g>
</g>
<g id="Ellipse 2">
<mask id="mask0_outline_ins">
<use xlink:href="#path1_fill" fill="white" transform="translate(11816 2160)"/>
</mask>
<g mask="url(#mask0_outline_ins)">
<use xlink:href="#path2_stroke_2x" transform="translate(11816 2160)"/>
</g>
</g>
</g>
</g>
<defs>
<path id="path0_fill" d="M 367.068 36.0626C 358.78 39.7344 350.177 42.6311 341.35 44.7282C 351.077 35.4929 358.39 23.9415 362.516 11.048C 363.694 7.36717 359.692 4.18424 356.366 6.15506C 344.085 13.4332 330.857 18.8931 317.047 22.385C 316.246 22.5876 315.419 22.6903 314.59 22.6903C 312.075 22.6903 309.629 21.7571 307.706 20.0635C 293.013 7.12547 274.117 1.02598e-06 254.498 1.02598e-06C 246.009 1.02598e-06 237.437 1.32206 229.022 3.92983C 202.947 12.0103 182.828 33.5003 176.516 60.0141C 174.148 69.9591 173.507 79.9131 174.609 89.5991C 174.735 90.7122 174.209 91.489 173.884 91.8534C 173.314 92.4922 172.505 92.8583 171.666 92.8583C 171.572 92.8583 171.476 92.8538 171.38 92.8447C 114.304 87.5465 62.8346 60.0722 26.4536 15.484C 24.5984 13.2097 21.0408 13.4886 19.5621 16.0228C 12.4377 28.2348 8.67275 42.2022 8.67275 56.415C 8.67275 78.1967 17.4313 98.7235 32.6449 113.688C 26.2471 112.172 20.055 109.785 14.3029 106.593C 11.5201 105.049 8.09618 107.034 8.05708 110.214C 7.65875 142.572 26.62 171.365 55.0246 184.33C 54.4526 184.344 53.8806 184.35 53.3076 184.35C 48.8051 184.35 44.2462 183.916 39.7592 183.059C 36.6254 182.461 33.9926 185.431 34.9657 188.467C 44.1853 217.226 68.9686 238.424 98.6264 243.237C 74.0122 259.746 45.3484 268.455 15.5152 268.455L 6.21461 268.449C 3.34905 268.449 0.925464 270.316 0.195205 273.089C -0.52414 275.82 0.800874 278.701 3.24447 280.122C 36.8618 299.669 75.2072 310 114.152 310C 148.241 310 180.129 303.241 208.93 289.911C 235.333 277.691 258.665 260.223 278.277 237.991C 296.547 217.282 310.834 193.375 320.739 166.935C 330.182 141.733 335.173 114.841 335.173 89.1666L 335.173 87.9436C 335.172 83.8211 337.038 79.9422 340.294 77.3017C 352.648 67.2795 363.406 55.4818 372.269 42.2367C 374.609 38.7394 370.918 34.3562 367.068 36.0626Z"/>
<path id="path1_fill" d="M 673 336.5C 673 522.344 522.344 673 336.5 673C 150.656 673 0 522.344 0 336.5C 0 150.656 150.656 0 336.5 0C 522.344 0 673 150.656 673 336.5Z"/>
<path id="path2_stroke_2x" d="M 643 336.5C 643 505.775 505.775 643 336.5 643L 336.5 703C 538.912 703 703 538.912 703 336.5L 643 336.5ZM 336.5 643C 167.225 643 30 505.775 30 336.5L -30 336.5C -30 538.912 134.088 703 336.5 703L 336.5 643ZM 30 336.5C 30 167.225 167.225 30 336.5 30L 336.5 -30C 134.088 -30 -30 134.088 -30 336.5L 30 336.5ZM 336.5 30C 505.775 30 643 167.225 643 336.5L 703 336.5C 703 134.088 538.912 -30 336.5 -30L 336.5 30Z"/>
</defs>
</svg>
